%TF.GenerationSoftware,KiCad,Pcbnew,(5.1.10)-1*%
%TF.CreationDate,2021-11-04T12:05:46-05:00*%
%TF.ProjectId,SR Design1,53522044-6573-4696-976e-312e6b696361,rev?*%
%TF.SameCoordinates,Original*%
%TF.FileFunction,Legend,Top*%
%TF.FilePolarity,Positive*%
%FSLAX46Y46*%
G04 Gerber Fmt 4.6, Leading zero omitted, Abs format (unit mm)*
G04 Created by KiCad (PCBNEW (5.1.10)-1) date 2021-11-04 12:05:46*
%MOMM*%
%LPD*%
G01*
G04 APERTURE LIST*
%ADD10C,0.150000*%
%ADD11C,0.120000*%
G04 APERTURE END LIST*
D10*
X130596428Y-65825714D02*
X130596428Y-66492380D01*
X130358333Y-65444761D02*
X130120238Y-66159047D01*
X130739285Y-66159047D01*
X131310714Y-65492380D02*
X131405952Y-65492380D01*
X131501190Y-65540000D01*
X131548809Y-65587619D01*
X131596428Y-65682857D01*
X131644047Y-65873333D01*
X131644047Y-66111428D01*
X131596428Y-66301904D01*
X131548809Y-66397142D01*
X131501190Y-66444761D01*
X131405952Y-66492380D01*
X131310714Y-66492380D01*
X131215476Y-66444761D01*
X131167857Y-66397142D01*
X131120238Y-66301904D01*
X131072619Y-66111428D01*
X131072619Y-65873333D01*
X131120238Y-65682857D01*
X131167857Y-65587619D01*
X131215476Y-65540000D01*
X131310714Y-65492380D01*
X132596428Y-66492380D02*
X132025000Y-66492380D01*
X132310714Y-66492380D02*
X132310714Y-65492380D01*
X132215476Y-65635238D01*
X132120238Y-65730476D01*
X132025000Y-65778095D01*
X132929761Y-65492380D02*
X133548809Y-65492380D01*
X133215476Y-65873333D01*
X133358333Y-65873333D01*
X133453571Y-65920952D01*
X133501190Y-65968571D01*
X133548809Y-66063809D01*
X133548809Y-66301904D01*
X133501190Y-66397142D01*
X133453571Y-66444761D01*
X133358333Y-66492380D01*
X133072619Y-66492380D01*
X132977380Y-66444761D01*
X132929761Y-66397142D01*
X135263095Y-65540000D02*
X135167857Y-65492380D01*
X135025000Y-65492380D01*
X134882142Y-65540000D01*
X134786904Y-65635238D01*
X134739285Y-65730476D01*
X134691666Y-65920952D01*
X134691666Y-66063809D01*
X134739285Y-66254285D01*
X134786904Y-66349523D01*
X134882142Y-66444761D01*
X135025000Y-66492380D01*
X135120238Y-66492380D01*
X135263095Y-66444761D01*
X135310714Y-66397142D01*
X135310714Y-66063809D01*
X135120238Y-66063809D01*
X136263095Y-66492380D02*
X135691666Y-66492380D01*
X135977380Y-66492380D02*
X135977380Y-65492380D01*
X135882142Y-65635238D01*
X135786904Y-65730476D01*
X135691666Y-65778095D01*
X138025000Y-66492380D02*
X137691666Y-66016190D01*
X137453571Y-66492380D02*
X137453571Y-65492380D01*
X137834523Y-65492380D01*
X137929761Y-65540000D01*
X137977380Y-65587619D01*
X138025000Y-65682857D01*
X138025000Y-65825714D01*
X137977380Y-65920952D01*
X137929761Y-65968571D01*
X137834523Y-66016190D01*
X137453571Y-66016190D01*
X138453571Y-65968571D02*
X138786904Y-65968571D01*
X138929761Y-66492380D02*
X138453571Y-66492380D01*
X138453571Y-65492380D01*
X138929761Y-65492380D01*
X139215476Y-65492380D02*
X139548809Y-66492380D01*
X139882142Y-65492380D01*
X141167857Y-65492380D02*
X141263095Y-65492380D01*
X141358333Y-65540000D01*
X141405952Y-65587619D01*
X141453571Y-65682857D01*
X141501190Y-65873333D01*
X141501190Y-66111428D01*
X141453571Y-66301904D01*
X141405952Y-66397142D01*
X141358333Y-66444761D01*
X141263095Y-66492380D01*
X141167857Y-66492380D01*
X141072619Y-66444761D01*
X141025000Y-66397142D01*
X140977380Y-66301904D01*
X140929761Y-66111428D01*
X140929761Y-65873333D01*
X140977380Y-65682857D01*
X141025000Y-65587619D01*
X141072619Y-65540000D01*
X141167857Y-65492380D01*
X141929761Y-66397142D02*
X141977380Y-66444761D01*
X141929761Y-66492380D01*
X141882142Y-66444761D01*
X141929761Y-66397142D01*
X141929761Y-66492380D01*
X142310714Y-65492380D02*
X142929761Y-65492380D01*
X142596428Y-65873333D01*
X142739285Y-65873333D01*
X142834523Y-65920952D01*
X142882142Y-65968571D01*
X142929761Y-66063809D01*
X142929761Y-66301904D01*
X142882142Y-66397142D01*
X142834523Y-66444761D01*
X142739285Y-66492380D01*
X142453571Y-66492380D01*
X142358333Y-66444761D01*
X142310714Y-66397142D01*
D11*
%TO.C,R3*%
X100560000Y-89535000D02*
X99790000Y-89535000D01*
X92480000Y-89535000D02*
X93250000Y-89535000D01*
X99790000Y-88165000D02*
X93250000Y-88165000D01*
X99790000Y-90905000D02*
X99790000Y-88165000D01*
X93250000Y-90905000D02*
X99790000Y-90905000D01*
X93250000Y-88165000D02*
X93250000Y-90905000D01*
%TO.C,J2*%
X96790000Y-123460000D02*
X97790000Y-123460000D01*
X96790000Y-124460000D02*
X96790000Y-123460000D01*
X98672114Y-130770000D02*
X99230000Y-130770000D01*
X98672114Y-130150000D02*
X99230000Y-130150000D01*
X105050000Y-130770000D02*
X100850000Y-130770000D01*
X105050000Y-130150000D02*
X105050000Y-130770000D01*
X100850000Y-130150000D02*
X105050000Y-130150000D01*
X99230000Y-129460000D02*
X100850000Y-129460000D01*
X98672114Y-128770000D02*
X99230000Y-128770000D01*
X98672114Y-128150000D02*
X99230000Y-128150000D01*
X105050000Y-128770000D02*
X100850000Y-128770000D01*
X105050000Y-128150000D02*
X105050000Y-128770000D01*
X100850000Y-128150000D02*
X105050000Y-128150000D01*
X99230000Y-127460000D02*
X100850000Y-127460000D01*
X98672114Y-126770000D02*
X99230000Y-126770000D01*
X98672114Y-126150000D02*
X99230000Y-126150000D01*
X105050000Y-126770000D02*
X100850000Y-126770000D01*
X105050000Y-126150000D02*
X105050000Y-126770000D01*
X100850000Y-126150000D02*
X105050000Y-126150000D01*
X99230000Y-125460000D02*
X100850000Y-125460000D01*
X98725000Y-124770000D02*
X99230000Y-124770000D01*
X98725000Y-124150000D02*
X99230000Y-124150000D01*
X100850000Y-124690000D02*
X105050000Y-124690000D01*
X100850000Y-124570000D02*
X105050000Y-124570000D01*
X100850000Y-124450000D02*
X105050000Y-124450000D01*
X100850000Y-124330000D02*
X105050000Y-124330000D01*
X100850000Y-124210000D02*
X105050000Y-124210000D01*
X105050000Y-124770000D02*
X100850000Y-124770000D01*
X105050000Y-124150000D02*
X105050000Y-124770000D01*
X100850000Y-124150000D02*
X105050000Y-124150000D01*
X100850000Y-123400000D02*
X99230000Y-123400000D01*
X100850000Y-131520000D02*
X100850000Y-123400000D01*
X99230000Y-131520000D02*
X100850000Y-131520000D01*
X99230000Y-123400000D02*
X99230000Y-131520000D01*
%TO.C,J1*%
X96790000Y-146320000D02*
X97790000Y-146320000D01*
X96790000Y-147320000D02*
X96790000Y-146320000D01*
X98672114Y-153630000D02*
X99230000Y-153630000D01*
X98672114Y-153010000D02*
X99230000Y-153010000D01*
X105050000Y-153630000D02*
X100850000Y-153630000D01*
X105050000Y-153010000D02*
X105050000Y-153630000D01*
X100850000Y-153010000D02*
X105050000Y-153010000D01*
X99230000Y-152320000D02*
X100850000Y-152320000D01*
X98672114Y-151630000D02*
X99230000Y-151630000D01*
X98672114Y-151010000D02*
X99230000Y-151010000D01*
X105050000Y-151630000D02*
X100850000Y-151630000D01*
X105050000Y-151010000D02*
X105050000Y-151630000D01*
X100850000Y-151010000D02*
X105050000Y-151010000D01*
X99230000Y-150320000D02*
X100850000Y-150320000D01*
X98672114Y-149630000D02*
X99230000Y-149630000D01*
X98672114Y-149010000D02*
X99230000Y-149010000D01*
X105050000Y-149630000D02*
X100850000Y-149630000D01*
X105050000Y-149010000D02*
X105050000Y-149630000D01*
X100850000Y-149010000D02*
X105050000Y-149010000D01*
X99230000Y-148320000D02*
X100850000Y-148320000D01*
X98725000Y-147630000D02*
X99230000Y-147630000D01*
X98725000Y-147010000D02*
X99230000Y-147010000D01*
X100850000Y-147550000D02*
X105050000Y-147550000D01*
X100850000Y-147430000D02*
X105050000Y-147430000D01*
X100850000Y-147310000D02*
X105050000Y-147310000D01*
X100850000Y-147190000D02*
X105050000Y-147190000D01*
X100850000Y-147070000D02*
X105050000Y-147070000D01*
X105050000Y-147630000D02*
X100850000Y-147630000D01*
X105050000Y-147010000D02*
X105050000Y-147630000D01*
X100850000Y-147010000D02*
X105050000Y-147010000D01*
X100850000Y-146260000D02*
X99230000Y-146260000D01*
X100850000Y-154380000D02*
X100850000Y-146260000D01*
X99230000Y-154380000D02*
X100850000Y-154380000D01*
X99230000Y-146260000D02*
X99230000Y-154380000D01*
%TO.C,R2*%
X92710000Y-68350000D02*
X92710000Y-69120000D01*
X92710000Y-76430000D02*
X92710000Y-75660000D01*
X91340000Y-69120000D02*
X91340000Y-75660000D01*
X94080000Y-69120000D02*
X91340000Y-69120000D01*
X94080000Y-75660000D02*
X94080000Y-69120000D01*
X91340000Y-75660000D02*
X94080000Y-75660000D01*
%TO.C,J3*%
X99060000Y-92650000D02*
X100390000Y-92650000D01*
X100390000Y-92650000D02*
X100390000Y-93980000D01*
X100390000Y-95250000D02*
X100390000Y-113090000D01*
X97730000Y-113090000D02*
X100390000Y-113090000D01*
X97730000Y-95250000D02*
X97730000Y-113090000D01*
X97730000Y-95250000D02*
X100390000Y-95250000D01*
%TO.C,J4*%
X107880000Y-85030000D02*
X99250000Y-85030000D01*
X107880000Y-84911905D02*
X99250000Y-84911905D01*
X107880000Y-84793810D02*
X99250000Y-84793810D01*
X107880000Y-84675715D02*
X99250000Y-84675715D01*
X107880000Y-84557620D02*
X99250000Y-84557620D01*
X107880000Y-84439525D02*
X99250000Y-84439525D01*
X107880000Y-84321430D02*
X99250000Y-84321430D01*
X107880000Y-84203335D02*
X99250000Y-84203335D01*
X107880000Y-84085240D02*
X99250000Y-84085240D01*
X107880000Y-83967145D02*
X99250000Y-83967145D01*
X107880000Y-83849050D02*
X99250000Y-83849050D01*
X107880000Y-83730955D02*
X99250000Y-83730955D01*
X107880000Y-83612860D02*
X99250000Y-83612860D01*
X107880000Y-83494765D02*
X99250000Y-83494765D01*
X107880000Y-83376670D02*
X99250000Y-83376670D01*
X107880000Y-83258575D02*
X99250000Y-83258575D01*
X107880000Y-83140480D02*
X99250000Y-83140480D01*
X107880000Y-83022385D02*
X99250000Y-83022385D01*
X107880000Y-82904290D02*
X99250000Y-82904290D01*
X107880000Y-82786195D02*
X99250000Y-82786195D01*
X107880000Y-82668100D02*
X99250000Y-82668100D01*
X99250000Y-84180000D02*
X98900000Y-84180000D01*
X99250000Y-83460000D02*
X98900000Y-83460000D01*
X99250000Y-81640000D02*
X98840000Y-81640000D01*
X99250000Y-80920000D02*
X98840000Y-80920000D01*
X99250000Y-79100000D02*
X98840000Y-79100000D01*
X99250000Y-78380000D02*
X98840000Y-78380000D01*
X99250000Y-76560000D02*
X98840000Y-76560000D01*
X99250000Y-75840000D02*
X98840000Y-75840000D01*
X99250000Y-74020000D02*
X98840000Y-74020000D01*
X99250000Y-73300000D02*
X98840000Y-73300000D01*
X99250000Y-71480000D02*
X98840000Y-71480000D01*
X99250000Y-70760000D02*
X98840000Y-70760000D01*
X107880000Y-82550000D02*
X99250000Y-82550000D01*
X107880000Y-80010000D02*
X99250000Y-80010000D01*
X107880000Y-77470000D02*
X99250000Y-77470000D01*
X107880000Y-74930000D02*
X99250000Y-74930000D01*
X107880000Y-72390000D02*
X99250000Y-72390000D01*
X107880000Y-85150000D02*
X99250000Y-85150000D01*
X99250000Y-85150000D02*
X99250000Y-69790000D01*
X107880000Y-69790000D02*
X99250000Y-69790000D01*
X107880000Y-85150000D02*
X107880000Y-69790000D01*
X96680000Y-85150000D02*
X96680000Y-83820000D01*
X97790000Y-85150000D02*
X96680000Y-85150000D01*
%TO.C,P1*%
D10*
X99607380Y-120013095D02*
X98607380Y-120013095D01*
X98607380Y-119632142D01*
X98655000Y-119536904D01*
X98702619Y-119489285D01*
X98797857Y-119441666D01*
X98940714Y-119441666D01*
X99035952Y-119489285D01*
X99083571Y-119536904D01*
X99131190Y-119632142D01*
X99131190Y-120013095D01*
X99607380Y-118489285D02*
X99607380Y-119060714D01*
X99607380Y-118775000D02*
X98607380Y-118775000D01*
X98750238Y-118870238D01*
X98845476Y-118965476D01*
X98893095Y-119060714D01*
%TO.C,AUX2*%
X132375714Y-148026666D02*
X132851904Y-148026666D01*
X132280476Y-148312380D02*
X132613809Y-147312380D01*
X132947142Y-148312380D01*
X133280476Y-147312380D02*
X133280476Y-148121904D01*
X133328095Y-148217142D01*
X133375714Y-148264761D01*
X133470952Y-148312380D01*
X133661428Y-148312380D01*
X133756666Y-148264761D01*
X133804285Y-148217142D01*
X133851904Y-148121904D01*
X133851904Y-147312380D01*
X134232857Y-147312380D02*
X134899523Y-148312380D01*
X134899523Y-147312380D02*
X134232857Y-148312380D01*
X135232857Y-147407619D02*
X135280476Y-147360000D01*
X135375714Y-147312380D01*
X135613809Y-147312380D01*
X135709047Y-147360000D01*
X135756666Y-147407619D01*
X135804285Y-147502857D01*
X135804285Y-147598095D01*
X135756666Y-147740952D01*
X135185238Y-148312380D01*
X135804285Y-148312380D01*
%TO.C,L3*%
X95067380Y-83351666D02*
X95067380Y-83827857D01*
X94067380Y-83827857D01*
X94067380Y-83113571D02*
X94067380Y-82494523D01*
X94448333Y-82827857D01*
X94448333Y-82685000D01*
X94495952Y-82589761D01*
X94543571Y-82542142D01*
X94638809Y-82494523D01*
X94876904Y-82494523D01*
X94972142Y-82542142D01*
X95019761Y-82589761D01*
X95067380Y-82685000D01*
X95067380Y-82970714D01*
X95019761Y-83065952D01*
X94972142Y-83113571D01*
%TO.C,L2*%
X103973333Y-67127380D02*
X103497142Y-67127380D01*
X103497142Y-66127380D01*
X104259047Y-66222619D02*
X104306666Y-66175000D01*
X104401904Y-66127380D01*
X104640000Y-66127380D01*
X104735238Y-66175000D01*
X104782857Y-66222619D01*
X104830476Y-66317857D01*
X104830476Y-66413095D01*
X104782857Y-66555952D01*
X104211428Y-67127380D01*
X104830476Y-67127380D01*
%TO.C,L1*%
X91892380Y-136056666D02*
X91892380Y-136532857D01*
X90892380Y-136532857D01*
X91892380Y-135199523D02*
X91892380Y-135770952D01*
X91892380Y-135485238D02*
X90892380Y-135485238D01*
X91035238Y-135580476D01*
X91130476Y-135675714D01*
X91178095Y-135770952D01*
%TO.C,AUX1*%
X133645714Y-142501666D02*
X134121904Y-142501666D01*
X133550476Y-142787380D02*
X133883809Y-141787380D01*
X134217142Y-142787380D01*
X134550476Y-141787380D02*
X134550476Y-142596904D01*
X134598095Y-142692142D01*
X134645714Y-142739761D01*
X134740952Y-142787380D01*
X134931428Y-142787380D01*
X135026666Y-142739761D01*
X135074285Y-142692142D01*
X135121904Y-142596904D01*
X135121904Y-141787380D01*
X135502857Y-141787380D02*
X136169523Y-142787380D01*
X136169523Y-141787380D02*
X135502857Y-142787380D01*
X137074285Y-142787380D02*
X136502857Y-142787380D01*
X136788571Y-142787380D02*
X136788571Y-141787380D01*
X136693333Y-141930238D01*
X136598095Y-142025476D01*
X136502857Y-142073095D01*
%TO.C,R3*%
X96353333Y-87617380D02*
X96020000Y-87141190D01*
X95781904Y-87617380D02*
X95781904Y-86617380D01*
X96162857Y-86617380D01*
X96258095Y-86665000D01*
X96305714Y-86712619D01*
X96353333Y-86807857D01*
X96353333Y-86950714D01*
X96305714Y-87045952D01*
X96258095Y-87093571D01*
X96162857Y-87141190D01*
X95781904Y-87141190D01*
X96686666Y-86617380D02*
X97305714Y-86617380D01*
X96972380Y-86998333D01*
X97115238Y-86998333D01*
X97210476Y-87045952D01*
X97258095Y-87093571D01*
X97305714Y-87188809D01*
X97305714Y-87426904D01*
X97258095Y-87522142D01*
X97210476Y-87569761D01*
X97115238Y-87617380D01*
X96829523Y-87617380D01*
X96734285Y-87569761D01*
X96686666Y-87522142D01*
%TO.C,J2*%
X100556666Y-121912380D02*
X100556666Y-122626666D01*
X100509047Y-122769523D01*
X100413809Y-122864761D01*
X100270952Y-122912380D01*
X100175714Y-122912380D01*
X100985238Y-122007619D02*
X101032857Y-121960000D01*
X101128095Y-121912380D01*
X101366190Y-121912380D01*
X101461428Y-121960000D01*
X101509047Y-122007619D01*
X101556666Y-122102857D01*
X101556666Y-122198095D01*
X101509047Y-122340952D01*
X100937619Y-122912380D01*
X101556666Y-122912380D01*
%TO.C,J1*%
X100556666Y-144772380D02*
X100556666Y-145486666D01*
X100509047Y-145629523D01*
X100413809Y-145724761D01*
X100270952Y-145772380D01*
X100175714Y-145772380D01*
X101556666Y-145772380D02*
X100985238Y-145772380D01*
X101270952Y-145772380D02*
X101270952Y-144772380D01*
X101175714Y-144915238D01*
X101080476Y-145010476D01*
X100985238Y-145058095D01*
%TO.C,R2*%
X95702380Y-72556666D02*
X95226190Y-72890000D01*
X95702380Y-73128095D02*
X94702380Y-73128095D01*
X94702380Y-72747142D01*
X94750000Y-72651904D01*
X94797619Y-72604285D01*
X94892857Y-72556666D01*
X95035714Y-72556666D01*
X95130952Y-72604285D01*
X95178571Y-72651904D01*
X95226190Y-72747142D01*
X95226190Y-73128095D01*
X94797619Y-72175714D02*
X94750000Y-72128095D01*
X94702380Y-72032857D01*
X94702380Y-71794761D01*
X94750000Y-71699523D01*
X94797619Y-71651904D01*
X94892857Y-71604285D01*
X94988095Y-71604285D01*
X95130952Y-71651904D01*
X95702380Y-72223333D01*
X95702380Y-71604285D01*
%TO.C,J3*%
X98726666Y-90662380D02*
X98726666Y-91376666D01*
X98679047Y-91519523D01*
X98583809Y-91614761D01*
X98440952Y-91662380D01*
X98345714Y-91662380D01*
X99107619Y-90662380D02*
X99726666Y-90662380D01*
X99393333Y-91043333D01*
X99536190Y-91043333D01*
X99631428Y-91090952D01*
X99679047Y-91138571D01*
X99726666Y-91233809D01*
X99726666Y-91471904D01*
X99679047Y-91567142D01*
X99631428Y-91614761D01*
X99536190Y-91662380D01*
X99250476Y-91662380D01*
X99155238Y-91614761D01*
X99107619Y-91567142D01*
%TO.C,J4*%
X101836666Y-86042380D02*
X101836666Y-86756666D01*
X101789047Y-86899523D01*
X101693809Y-86994761D01*
X101550952Y-87042380D01*
X101455714Y-87042380D01*
X102741428Y-86375714D02*
X102741428Y-87042380D01*
X102503333Y-85994761D02*
X102265238Y-86709047D01*
X102884285Y-86709047D01*
%TD*%
M02*
