%TF.GenerationSoftware,KiCad,Pcbnew,(5.1.10)-1*%
%TF.CreationDate,2021-11-04T12:05:46-05:00*%
%TF.ProjectId,SR Design1,53522044-6573-4696-976e-312e6b696361,rev?*%
%TF.SameCoordinates,Original*%
%TF.FileFunction,Copper,L2,Bot*%
%TF.FilePolarity,Positive*%
%FSLAX46Y46*%
G04 Gerber Fmt 4.6, Leading zero omitted, Abs format (unit mm)*
G04 Created by KiCad (PCBNEW (5.1.10)-1) date 2021-11-04 12:05:46*
%MOMM*%
%LPD*%
G01*
G04 APERTURE LIST*
%TA.AperFunction,ComponentPad*%
%ADD10O,1.700000X2.000000*%
%TD*%
%TA.AperFunction,ComponentPad*%
%ADD11C,1.600000*%
%TD*%
%TA.AperFunction,ComponentPad*%
%ADD12O,1.600000X1.600000*%
%TD*%
%TA.AperFunction,ComponentPad*%
%ADD13O,1.350000X1.350000*%
%TD*%
%TA.AperFunction,ComponentPad*%
%ADD14R,1.350000X1.350000*%
%TD*%
%TA.AperFunction,ComponentPad*%
%ADD15O,1.700000X1.700000*%
%TD*%
%TA.AperFunction,ComponentPad*%
%ADD16R,1.700000X1.700000*%
%TD*%
%TA.AperFunction,ComponentPad*%
%ADD17R,1.600000X1.600000*%
%TD*%
%TA.AperFunction,ViaPad*%
%ADD18C,0.800000*%
%TD*%
%TA.AperFunction,Conductor*%
%ADD19C,0.250000*%
%TD*%
G04 APERTURE END LIST*
D10*
%TO.P,Batt1,2*%
%TO.N,Net-(A1-Pad8)*%
X140295000Y-155575000D03*
%TO.P,Batt1,1*%
%TO.N,Net-(A1-Pad7)*%
%TA.AperFunction,ComponentPad*%
G36*
G01*
X136945000Y-156325000D02*
X136945000Y-154825000D01*
G75*
G02*
X137195000Y-154575000I250000J0D01*
G01*
X138395000Y-154575000D01*
G75*
G02*
X138645000Y-154825000I0J-250000D01*
G01*
X138645000Y-156325000D01*
G75*
G02*
X138395000Y-156575000I-250000J0D01*
G01*
X137195000Y-156575000D01*
G75*
G02*
X136945000Y-156325000I0J250000D01*
G01*
G37*
%TD.AperFunction*%
%TD*%
D11*
%TO.P,P1,2*%
%TO.N,Net-(AUX1-Pad2)*%
X97155000Y-121075000D03*
%TO.P,P1,1*%
%TO.N,Net-(A1-Pad5)*%
%TA.AperFunction,ComponentPad*%
G36*
G01*
X96605000Y-116675000D02*
X97705000Y-116675000D01*
G75*
G02*
X97955000Y-116925000I0J-250000D01*
G01*
X97955000Y-118025000D01*
G75*
G02*
X97705000Y-118275000I-250000J0D01*
G01*
X96605000Y-118275000D01*
G75*
G02*
X96355000Y-118025000I0J250000D01*
G01*
X96355000Y-116925000D01*
G75*
G02*
X96605000Y-116675000I250000J0D01*
G01*
G37*
%TD.AperFunction*%
%TD*%
%TO.P,AUX2,1*%
%TO.N,Net-(A1-Pad8)*%
%TA.AperFunction,ComponentPad*%
G36*
G01*
X131490000Y-150410000D02*
X131490000Y-149310000D01*
G75*
G02*
X131740000Y-149060000I250000J0D01*
G01*
X132840000Y-149060000D01*
G75*
G02*
X133090000Y-149310000I0J-250000D01*
G01*
X133090000Y-150410000D01*
G75*
G02*
X132840000Y-150660000I-250000J0D01*
G01*
X131740000Y-150660000D01*
G75*
G02*
X131490000Y-150410000I0J250000D01*
G01*
G37*
%TD.AperFunction*%
%TO.P,AUX2,2*%
%TO.N,Net-(AUX2-Pad2)*%
X135890000Y-149860000D03*
%TD*%
%TO.P,L3,2*%
%TO.N,Net-(A1-Pad7)*%
X92710000Y-81490000D03*
%TO.P,L3,1*%
%TO.N,Net-(L3-Pad1)*%
%TA.AperFunction,ComponentPad*%
G36*
G01*
X93260000Y-85890000D02*
X92160000Y-85890000D01*
G75*
G02*
X91910000Y-85640000I0J250000D01*
G01*
X91910000Y-84540000D01*
G75*
G02*
X92160000Y-84290000I250000J0D01*
G01*
X93260000Y-84290000D01*
G75*
G02*
X93510000Y-84540000I0J-250000D01*
G01*
X93510000Y-85640000D01*
G75*
G02*
X93260000Y-85890000I-250000J0D01*
G01*
G37*
%TD.AperFunction*%
%TD*%
%TO.P,L2,2*%
%TO.N,Net-(A1-Pad7)*%
X102025000Y-66675000D03*
%TO.P,L2,1*%
%TO.N,Net-(L2-Pad1)*%
%TA.AperFunction,ComponentPad*%
G36*
G01*
X97625000Y-67225000D02*
X97625000Y-66125000D01*
G75*
G02*
X97875000Y-65875000I250000J0D01*
G01*
X98975000Y-65875000D01*
G75*
G02*
X99225000Y-66125000I0J-250000D01*
G01*
X99225000Y-67225000D01*
G75*
G02*
X98975000Y-67475000I-250000J0D01*
G01*
X97875000Y-67475000D01*
G75*
G02*
X97625000Y-67225000I0J250000D01*
G01*
G37*
%TD.AperFunction*%
%TD*%
%TO.P,L1,2*%
%TO.N,Net-(A1-Pad7)*%
X92075000Y-138005000D03*
%TO.P,L1,1*%
%TO.N,Net-(L1-Pad1)*%
%TA.AperFunction,ComponentPad*%
G36*
G01*
X92625000Y-142405000D02*
X91525000Y-142405000D01*
G75*
G02*
X91275000Y-142155000I0J250000D01*
G01*
X91275000Y-141055000D01*
G75*
G02*
X91525000Y-140805000I250000J0D01*
G01*
X92625000Y-140805000D01*
G75*
G02*
X92875000Y-141055000I0J-250000D01*
G01*
X92875000Y-142155000D01*
G75*
G02*
X92625000Y-142405000I-250000J0D01*
G01*
G37*
%TD.AperFunction*%
%TD*%
%TO.P,AUX1,2*%
%TO.N,Net-(AUX1-Pad2)*%
X133560000Y-140335000D03*
%TO.P,AUX1,1*%
%TO.N,Net-(AUX1-Pad1)*%
%TA.AperFunction,ComponentPad*%
G36*
G01*
X137960000Y-139785000D02*
X137960000Y-140885000D01*
G75*
G02*
X137710000Y-141135000I-250000J0D01*
G01*
X136610000Y-141135000D01*
G75*
G02*
X136360000Y-140885000I0J250000D01*
G01*
X136360000Y-139785000D01*
G75*
G02*
X136610000Y-139535000I250000J0D01*
G01*
X137710000Y-139535000D01*
G75*
G02*
X137960000Y-139785000I0J-250000D01*
G01*
G37*
%TD.AperFunction*%
%TD*%
D12*
%TO.P,R3,2*%
%TO.N,Net-(L3-Pad1)*%
X101600000Y-89535000D03*
D11*
%TO.P,R3,1*%
%TO.N,Net-(A1-Pad4)*%
X91440000Y-89535000D03*
%TD*%
D12*
%TO.P,R5,2*%
%TO.N,Net-(AUX2-Pad2)*%
X141605000Y-150495000D03*
D11*
%TO.P,R5,1*%
%TO.N,Net-(AUX1-Pad1)*%
X141605000Y-140335000D03*
%TD*%
D12*
%TO.P,R4,2*%
%TO.N,Net-(AUX1-Pad1)*%
X141605000Y-134620000D03*
D11*
%TO.P,R4,1*%
%TO.N,Net-(A1-Pad7)*%
X131445000Y-134620000D03*
%TD*%
D13*
%TO.P,J2,4*%
%TO.N,Net-(A1-Pad18)*%
X97790000Y-130460000D03*
%TO.P,J2,3*%
%TO.N,Net-(A1-Pad19)*%
X97790000Y-128460000D03*
%TO.P,J2,2*%
%TO.N,Net-(AUX1-Pad2)*%
X97790000Y-126460000D03*
D14*
%TO.P,J2,1*%
%TO.N,Net-(A1-Pad7)*%
X97790000Y-124460000D03*
%TD*%
D13*
%TO.P,J1,4*%
%TO.N,Net-(A1-Pad14)*%
X97790000Y-153320000D03*
%TO.P,J1,3*%
%TO.N,Net-(A1-Pad13)*%
X97790000Y-151320000D03*
%TO.P,J1,2*%
%TO.N,Net-(AUX1-Pad2)*%
X97790000Y-149320000D03*
D14*
%TO.P,J1,1*%
%TO.N,Net-(A1-Pad7)*%
X97790000Y-147320000D03*
%TD*%
D12*
%TO.P,R1,2*%
%TO.N,Net-(L1-Pad1)*%
X92075000Y-147320000D03*
D11*
%TO.P,R1,1*%
%TO.N,Net-(A1-Pad17)*%
X92075000Y-157480000D03*
%TD*%
D12*
%TO.P,R2,2*%
%TO.N,Net-(L2-Pad1)*%
X92710000Y-67310000D03*
D11*
%TO.P,R2,1*%
%TO.N,Net-(A1-Pad8)*%
X92710000Y-77470000D03*
%TD*%
D15*
%TO.P,J3,8*%
%TO.N,Net-(A1-Pad12)*%
X99060000Y-111760000D03*
%TO.P,J3,7*%
%TO.N,Net-(A1-Pad7)*%
X99060000Y-109220000D03*
%TO.P,J3,6*%
%TO.N,Net-(A1-Pad20)*%
X99060000Y-106680000D03*
%TO.P,J3,5*%
%TO.N,Net-(AUX1-Pad2)*%
X99060000Y-104140000D03*
%TO.P,J3,4*%
%TO.N,Net-(A1-Pad21)*%
X99060000Y-101600000D03*
%TO.P,J3,3*%
%TO.N,Net-(A1-Pad22)*%
X99060000Y-99060000D03*
%TO.P,J3,2*%
%TO.N,Net-(A1-Pad23)*%
X99060000Y-96520000D03*
D16*
%TO.P,J3,1*%
%TO.N,Net-(A1-Pad24)*%
X99060000Y-93980000D03*
%TD*%
D12*
%TO.P,A1,16*%
%TO.N,Net-(A1-Pad16)*%
X140970000Y-125730000D03*
%TO.P,A1,15*%
%TO.N,Net-(A1-Pad15)*%
X140970000Y-128270000D03*
%TO.P,A1,30*%
%TO.N,Net-(A1-Pad30)*%
X140970000Y-88650000D03*
%TO.P,A1,14*%
%TO.N,Net-(A1-Pad14)*%
X92710000Y-128270000D03*
%TO.P,A1,29*%
%TO.N,Net-(A1-Pad29)*%
X140970000Y-91190000D03*
%TO.P,A1,13*%
%TO.N,Net-(A1-Pad13)*%
X92710000Y-125730000D03*
%TO.P,A1,28*%
%TO.N,Net-(A1-Pad28)*%
X140970000Y-93730000D03*
%TO.P,A1,12*%
%TO.N,Net-(A1-Pad12)*%
X92710000Y-123190000D03*
%TO.P,A1,27*%
%TO.N,Net-(A1-Pad27)*%
X140970000Y-96270000D03*
%TO.P,A1,11*%
%TO.N,Net-(A1-Pad11)*%
X92710000Y-120650000D03*
%TO.P,A1,26*%
%TO.N,Net-(A1-Pad26)*%
X140970000Y-98810000D03*
%TO.P,A1,10*%
%TO.N,Net-(A1-Pad10)*%
X92710000Y-118110000D03*
%TO.P,A1,25*%
%TO.N,Net-(A1-Pad25)*%
X140970000Y-101350000D03*
%TO.P,A1,9*%
%TO.N,Net-(A1-Pad9)*%
X92710000Y-115570000D03*
%TO.P,A1,24*%
%TO.N,Net-(A1-Pad24)*%
X140970000Y-103890000D03*
%TO.P,A1,8*%
%TO.N,Net-(A1-Pad8)*%
X92710000Y-110490000D03*
%TO.P,A1,23*%
%TO.N,Net-(A1-Pad23)*%
X140970000Y-106430000D03*
%TO.P,A1,7*%
%TO.N,Net-(A1-Pad7)*%
X92710000Y-107950000D03*
%TO.P,A1,22*%
%TO.N,Net-(A1-Pad22)*%
X140970000Y-110490000D03*
%TO.P,A1,6*%
%TO.N,Net-(A1-Pad6)*%
X92710000Y-105410000D03*
%TO.P,A1,21*%
%TO.N,Net-(A1-Pad21)*%
X140970000Y-113030000D03*
%TO.P,A1,5*%
%TO.N,Net-(A1-Pad5)*%
X92710000Y-102870000D03*
%TO.P,A1,20*%
%TO.N,Net-(A1-Pad20)*%
X140970000Y-115570000D03*
%TO.P,A1,4*%
%TO.N,Net-(A1-Pad4)*%
X92710000Y-100330000D03*
%TO.P,A1,19*%
%TO.N,Net-(A1-Pad19)*%
X140970000Y-118110000D03*
%TO.P,A1,3*%
%TO.N,Net-(A1-Pad3)*%
X92710000Y-97790000D03*
%TO.P,A1,18*%
%TO.N,Net-(A1-Pad18)*%
X140970000Y-120650000D03*
%TO.P,A1,2*%
%TO.N,Net-(A1-Pad2)*%
X92710000Y-95250000D03*
%TO.P,A1,17*%
%TO.N,Net-(A1-Pad17)*%
X140970000Y-123190000D03*
D17*
%TO.P,A1,1*%
%TO.N,Net-(A1-Pad1)*%
X92710000Y-92710000D03*
D12*
%TO.P,A1,31*%
%TO.N,Net-(A1-Pad31)*%
X140970000Y-86110000D03*
%TO.P,A1,32*%
%TO.N,Net-(A1-Pad32)*%
X140970000Y-83570000D03*
%TD*%
D15*
%TO.P,J4,6*%
%TO.N,Net-(A1-Pad7)*%
X97790000Y-71120000D03*
%TO.P,J4,5*%
%TO.N,Net-(AUX1-Pad2)*%
X97790000Y-73660000D03*
%TO.P,J4,4*%
%TO.N,Net-(A1-Pad27)*%
X97790000Y-76200000D03*
%TO.P,J4,3*%
%TO.N,Net-(A1-Pad26)*%
X97790000Y-78740000D03*
%TO.P,J4,2*%
%TO.N,Net-(A1-Pad28)*%
X97790000Y-81280000D03*
D16*
%TO.P,J4,1*%
%TO.N,Net-(A1-Pad25)*%
X97790000Y-83820000D03*
%TD*%
D18*
%TO.N,Net-(A1-Pad12)*%
X95250000Y-122555000D03*
X96520000Y-122555000D03*
%TO.N,Net-(A1-Pad8)*%
X94615000Y-104775000D03*
X94615000Y-93345000D03*
X94615000Y-78105000D03*
X95250000Y-113030000D03*
X106680000Y-131445000D03*
X106680000Y-142240000D03*
%TO.N,Net-(A1-Pad7)*%
X100330000Y-134620000D03*
X97155000Y-155575000D03*
%TO.N,Net-(A1-Pad5)*%
X95250000Y-115570000D03*
%TO.N,Net-(L3-Pad1)*%
X95250000Y-86360000D03*
%TD*%
D19*
%TO.N,Net-(A1-Pad28)*%
X140990000Y-93710000D02*
X140970000Y-93730000D01*
X97790000Y-81280000D02*
X99695000Y-81280000D01*
X112145000Y-93730000D02*
X140970000Y-93730000D01*
X99695000Y-81280000D02*
X112145000Y-93730000D01*
%TO.N,Net-(A1-Pad12)*%
X97340002Y-122555000D02*
X96520000Y-122555000D01*
X99060000Y-120835002D02*
X97340002Y-122555000D01*
X99060000Y-111760000D02*
X99060000Y-120835002D01*
X93345000Y-122555000D02*
X92710000Y-123190000D01*
X95250000Y-122555000D02*
X93345000Y-122555000D01*
%TO.N,Net-(A1-Pad27)*%
X141530000Y-95710000D02*
X140970000Y-96270000D01*
%TO.N,Net-(A1-Pad26)*%
X141220000Y-99060000D02*
X140970000Y-98810000D01*
%TO.N,Net-(A1-Pad8)*%
X92710000Y-110490000D02*
X94615000Y-112395000D01*
X95250000Y-113030000D02*
X94615000Y-112395000D01*
X106680000Y-131445000D02*
X106680000Y-142240000D01*
X92710000Y-77470000D02*
X93980000Y-77470000D01*
X94615000Y-78105000D02*
X93980000Y-77470000D01*
X94615000Y-104775000D02*
X94615000Y-93345000D01*
%TO.N,Net-(A1-Pad7)*%
X92710000Y-107950000D02*
X93980000Y-107950000D01*
X93980000Y-107950000D02*
X95885000Y-109855000D01*
X95885000Y-73025000D02*
X97790000Y-71120000D01*
X96520000Y-109220000D02*
X95885000Y-108585000D01*
X99060000Y-109220000D02*
X96520000Y-109220000D01*
X95885000Y-108585000D02*
X95885000Y-106045000D01*
X95885000Y-109855000D02*
X95885000Y-108585000D01*
X96520000Y-124460000D02*
X95885000Y-123825000D01*
X97790000Y-124460000D02*
X96520000Y-124460000D01*
X95885000Y-123825000D02*
X95885000Y-109855000D01*
X95885000Y-145415000D02*
X97790000Y-147320000D01*
X95885000Y-135255000D02*
X95885000Y-145415000D01*
X95885000Y-145415000D02*
X95885000Y-154940000D01*
X100330000Y-134620000D02*
X96520000Y-134620000D01*
X95885000Y-79375000D02*
X95885000Y-73025000D01*
X95885000Y-106045000D02*
X95885000Y-79375000D01*
X92075000Y-138005000D02*
X94825000Y-135255000D01*
X96520000Y-134620000D02*
X95885000Y-134620000D01*
X95885000Y-134620000D02*
X95885000Y-135255000D01*
X95885000Y-123825000D02*
X95885000Y-134620000D01*
X94825000Y-79375000D02*
X92710000Y-81490000D01*
X95885000Y-79375000D02*
X94825000Y-79375000D01*
X100755000Y-67945000D02*
X102025000Y-66675000D01*
X99060000Y-67945000D02*
X100755000Y-67945000D01*
X95885000Y-71120000D02*
X99060000Y-67945000D01*
X95885000Y-73025000D02*
X95885000Y-71120000D01*
X96520000Y-155575000D02*
X95885000Y-154940000D01*
X97155000Y-155575000D02*
X96520000Y-155575000D01*
X94825000Y-135255000D02*
X95885000Y-135255000D01*
%TO.N,Net-(A1-Pad5)*%
X92710000Y-102870000D02*
X91440000Y-104140000D01*
X91440000Y-104140000D02*
X91440000Y-111760000D01*
X95250000Y-115570000D02*
X91440000Y-111760000D01*
%TO.N,Net-(A1-Pad4)*%
X92710000Y-100330000D02*
X91440000Y-99060000D01*
X91440000Y-99060000D02*
X91440000Y-89535000D01*
%TO.N,Net-(A1-Pad19)*%
X140970000Y-118110000D02*
X116840000Y-118110000D01*
X106490000Y-128460000D02*
X97790000Y-128460000D01*
X116840000Y-118110000D02*
X106490000Y-128460000D01*
%TO.N,Net-(A1-Pad18)*%
X97790000Y-130460000D02*
X108935000Y-130460000D01*
X118745000Y-120650000D02*
X140970000Y-120650000D01*
X108935000Y-130460000D02*
X118745000Y-120650000D01*
%TO.N,Net-(A1-Pad17)*%
X92075000Y-157480000D02*
X106680000Y-157480000D01*
X140970000Y-123190000D02*
X129540000Y-123190000D01*
X129540000Y-123190000D02*
X121920000Y-130810000D01*
X121920000Y-130810000D02*
X121920000Y-149860000D01*
X114300000Y-157480000D02*
X106680000Y-157480000D01*
X121920000Y-149860000D02*
X114300000Y-157480000D01*
%TO.N,Net-(L3-Pad1)*%
X93980000Y-86360000D02*
X92710000Y-85090000D01*
X95250000Y-86360000D02*
X93980000Y-86360000D01*
%TD*%
M02*
